<?xml version="1.0" standalone="no"?>
<!DOCTYPE svg PUBLIC "-//W3C//DTD SVG 20010904//EN"
 "http://www.w3.org/TR/2001/REC-SVG-20010904/DTD/svg10.dtd">
<svg version="1.0" xmlns="http://www.w3.org/2000/svg"
 width="496.000000pt" height="496.000000pt" viewBox="0 0 496.000000 496.000000"
 preserveAspectRatio="xMidYMid meet">
<metadata>
Created by potrace 1.11, written by Peter Selinger 2001-2013
</metadata>
<g transform="translate(0.000000,496.000000) scale(0.100000,-0.100000)"
fill="#000000" stroke="none">
<path d="M546 4944 c-96 -30 -176 -99 -223 -192 l-28 -57 -3 -2190 c-2 -1966
-1 -2195 14 -2243 30 -104 89 -173 192 -224 79 -39 186 -47 266 -20 28 10 200
103 381 208 327 190 570 330 629 364 17 10 130 75 251 145 121 70 236 136 255
147 202 116 321 185 353 205 20 13 37 21 37 18 0 -3 22 9 49 25 26 17 53 30
59 30 6 0 12 4 14 8 1 5 30 23 63 42 57 31 342 196 720 415 94 54 195 112 225
128 30 17 66 38 80 47 14 9 50 30 80 47 30 16 93 52 140 80 47 27 164 96 261
152 195 112 246 153 284 229 59 117 55 246 -9 356 -47 80 -95 116 -316 238
-19 11 -48 27 -65 37 -33 20 -212 124 -260 151 -16 9 -160 92 -320 185 -159
92 -308 177 -330 190 -22 12 -137 78 -255 147 -303 176 -829 478 -865 497 -16
9 -32 18 -35 21 -3 3 -15 11 -28 18 -12 7 -97 56 -190 109 -92 53 -180 104
-197 113 -91 53 -454 262 -680 393 -143 83 -284 161 -313 172 -64 27 -167 30
-236 9z"/>
</g>
</svg>
