<?xml version="1.0" standalone="no"?>
<!DOCTYPE svg PUBLIC "-//W3C//DTD SVG 20010904//EN"
 "http://www.w3.org/TR/2001/REC-SVG-20010904/DTD/svg10.dtd">
<svg version="1.0" xmlns="http://www.w3.org/2000/svg"
 width="125.000000pt" height="125.000000pt" viewBox="0 0 125.000000 125.000000"
 preserveAspectRatio="xMidYMid meet">
<metadata>
Created by potrace 1.11, written by Peter Selinger 2001-2013
</metadata>
<g transform="translate(0.000000,125.000000) scale(0.100000,-0.100000)"
fill="#000000" stroke="none">
<path d="M103 1216 l-28 -24 0 -554 c-1 -310 3 -565 8 -581 11 -33 58 -60 95
-53 15 2 83 37 152 77 69 40 199 115 290 167 408 234 516 297 526 307 38 37
39 95 1 131 -12 12 -230 141 -485 288 -500 287 -504 289 -559 242z"/>
</g>
</svg>
